<svg width="282" height="282" viewBox="0 0 282 282" fill="none" xmlns="http://www.w3.org/2000/svg">
<path d="M101.352 60.8993C101.506 64.1846 102.339 65.104 102.03 65.9753C101.721 66.8467 97.2671 81.9774 96.8398 84.459C97.3221 91.1058 98.0665 99.7886 99.031 101.891C100.125 98.2996 102.951 89.583 104.888 87.021C103.794 78.7866 103.312 66.8961 103.728 65.9316C104.848 64.399 106.295 63.1351 107.965 62.2318C107.285 60.4006 106.51 58.606 105.644 56.8555C103.76 58.3599 101.867 59.8052 101.352 60.8993Z" fill="#2FAF40"/>
<path d="M104.155 33.4702C103.467 34.0539 101.1 34.5756 100.761 32.737C100.651 32.156 100.017 32.1448 99.9391 32.737C99.6444 35.4526 103.914 35.8573 104.987 34.2146C105.304 33.7324 104.761 32.9583 104.155 33.4702ZM102.59 23.4733C101.898 23.1998 101.146 23.1128 100.41 23.2209C99.227 23.4507 99.1509 24.7211 100.551 24.7324C101.08 24.7554 101.605 24.8325 102.118 24.9622C103.21 25.1808 103.11 23.6707 102.59 23.4733ZM110.177 25.1808C109.257 24.6057 108.158 24.3912 107.089 24.5787C106.243 24.7761 106.257 25.9041 107.265 26.0141C108.076 26.07 108.87 26.2741 109.607 26.6162C110.616 27.0208 110.977 25.828 110.177 25.1808ZM107.357 28.2362C106.482 28.0952 106.121 30.426 106.952 30.536C107.784 30.6459 108.052 28.3476 107.363 28.2362H107.357ZM100.722 27.1421C99.9236 27.0815 99.6275 29.4305 100.427 29.5179C101.226 29.6054 101.528 27.2013 100.727 27.1421H100.722ZM108.578 36.6596C109.444 35.8827 110.014 37.053 109.674 37.4591C109.035 38.226 108.183 38.7855 107.226 39.0663C106.268 39.347 105.249 39.3363 104.297 39.0354C103.291 38.783 103.202 37.8313 104.297 37.9399C105.063 38.0821 105.852 38.038 106.597 37.8112C107.342 37.5845 108.022 37.1817 108.578 36.637V36.6596Z" fill="#191B1A"/>
<path d="M119.425 50.8376C119.002 50.299 118.549 50.2891 117.892 50.7163C114.179 53.1419 110.117 54.988 105.848 56.1914C104.448 55.0441 103.236 53.6843 102.257 52.1616C101.763 51.286 100.768 52.1616 101.161 52.8299C102.059 54.323 103.165 55.6801 104.447 56.8597C103.406 58.1708 102.182 59.3248 100.812 60.286C100.279 58.3705 100.079 56.3781 100.219 54.395C100.121 53.831 99.2565 53.0597 99.0379 56.2139C98.8495 58.1243 99.0963 60.0526 99.7598 61.8539C100.439 63.3542 103.516 59.6642 105.235 58.1202C105.658 59.0833 107.425 63.9675 108.75 63.7377C111.411 63.2879 116.415 60.802 117.674 58.6462C117.733 58.5378 117.756 58.4134 117.74 58.2909C117.724 58.1685 117.669 58.0545 117.583 57.9653C117.498 57.8762 117.386 57.8167 117.264 57.7953C117.143 57.774 117.018 57.792 116.907 57.8467C115.122 58.8097 114.717 60.31 108.849 62.3023C107.908 60.752 107.106 59.1219 106.452 57.4307C110.731 56.0672 114.846 54.2308 118.719 51.9557C119.386 52.8637 120.656 55.0098 121.499 54.7757C122.43 54.5487 119.771 51.2846 119.425 50.8376Z" fill="#191B1A"/>
<path d="M110.543 42.9964C107.149 45.1862 103.579 46.1069 99.8563 44.2118C98.0487 43.3038 97.9401 42.7666 97.9401 40.7517C98.0259 34.1124 98.6284 27.4898 99.7421 20.944C99.8831 20.0684 98.5379 19.7399 98.3955 20.6155C97.9359 23.6047 95.7461 40.2046 96.7529 43.1614C97.7173 45.9419 101.603 46.8401 104.226 46.8401C103.92 48.2642 103.613 49.6869 103.318 51.1208C103.24 51.4719 104.205 52.9835 104.927 50.2565C105.234 49.0961 105.453 47.9131 105.726 46.7414C107.863 46.5312 109.859 45.5782 111.366 44.0483C111.847 43.4998 111.201 42.5805 110.544 42.9527L110.543 42.9964ZM124.383 22.6741C126.672 24.2505 125.215 28.2803 123.508 28.7371C124.875 30.6096 122.051 37.2676 118.405 37.1026C118.329 38.6804 117.814 44.3514 117.628 49.9576C117.628 50.5935 116.532 50.4511 116.422 49.8702C116.05 48.2712 116.937 36.8841 117.189 35.8773C117.573 34.3771 118.766 35.0313 119.97 33.4127C122.883 29.4647 118.755 27.0677 117.079 30.2049C116.314 31.6389 113.192 27.7191 112.7 21.7449C108.134 21.274 100.075 20.2672 97.6003 18.4596C96.9787 17.9932 96.5347 17.3288 96.3416 16.5761C96.1484 15.8234 96.2177 15.0273 96.5379 14.3193C96.8581 13.6112 97.4101 13.0335 98.1028 12.6814C98.7956 12.3292 99.5876 12.2238 100.348 12.3825C99.9677 7.43199 106.454 8.10033 107.79 10.2788C107.965 6.65508 118.127 6.60009 117.863 12.0427C121.811 9.65556 126.164 15.469 123.164 17.5939C126.194 17.4402 127.391 21.7435 124.379 22.6741H124.383Z" fill="#191B1A"/>
<path d="M272.322 271.848C185.889 271.886 97.8286 272.271 11.7213 272.231C11.5093 272.231 11.306 272.315 11.156 272.465C11.0061 272.615 10.9219 272.819 10.9219 273.031C10.9219 273.243 11.0061 273.446 11.156 273.596C11.306 273.746 11.5093 273.83 11.7213 273.83C97.8399 274.761 185.931 273.939 272.322 273.929C273.56 273.925 273.658 271.848 272.322 271.848Z" fill="#191B1A"/>
<path d="M64.9785 257.566C57.0627 264.052 43.0798 265.516 42.5002 269.611C42.3903 270.442 79.2025 269.797 79.4648 269.305C80.9213 266.578 78.6667 259.241 78.6005 258.355C74.044 258.744 69.4552 258.467 64.9785 257.534V257.566ZM159.375 252.583C158.478 256.044 156.265 262.03 155.427 262.594C154.59 263.158 146.579 265.792 145.267 270.5C145.079 271.169 158.889 270.905 162.556 268.005C166.224 265.104 177.14 254.94 177.282 253.764C177.425 252.588 172.642 246.503 170.713 245.476C169.647 247.526 163.942 252.583 159.375 252.583Z" fill="#191B1A"/>
<path d="M175.684 137.657C174.959 136.858 174.03 137.516 174.589 138.503C175.508 140.168 177.204 142.423 178.255 142.169C181.776 141.074 185.071 139.354 187.984 137.093C189.079 136.371 187.765 134.531 186.964 132.932C185.969 130.896 185.247 132.035 185.192 132.298C185.038 132.955 186.561 135.583 186.933 136.141C184.157 137.913 181.246 139.465 178.228 140.783C177.296 139.812 176.445 138.767 175.684 137.657ZM196.18 142.967C196.72 144.345 196.854 145.848 196.567 147.299C196.28 148.75 195.584 150.089 194.561 151.158C193.997 151.76 192.852 151.158 193.292 150.358C194.014 149.277 194.583 148.101 194.984 146.864C196.2 141.816 190.811 140.295 188.907 138.894C188.804 138.806 188.731 138.687 188.701 138.555C188.671 138.423 188.685 138.284 188.74 138.16C188.796 138.037 188.89 137.934 189.009 137.869C189.128 137.803 189.265 137.779 189.399 137.798C192.248 138.571 194.68 140.429 196.174 142.974L196.18 142.967ZM187.156 152.362C185.887 151.836 182.338 152.307 180.935 149.986C179.841 148.19 180.705 145.803 180.301 143.733C180.16 142.999 179.009 143.197 178.999 143.953C178.922 148.497 177.307 153.183 186.028 153.807C187.59 153.895 187.996 152.712 187.153 152.362H187.156Z" fill="#191B1A"/>
<path d="M237.039 172.575C230.941 170.187 214.548 178.779 209.162 182.223C204.464 173.189 195.715 157.356 190.55 149.121C192.576 145.934 187.407 143.383 185.667 146.515C185.388 147.016 185.275 147.593 185.344 148.163C185.414 148.733 185.663 149.266 186.055 149.685C186.447 150.104 186.962 150.388 187.526 150.496C188.09 150.603 188.674 150.528 189.192 150.283C206.877 183.207 224.865 216.254 241.422 249.737C241.487 249.878 241.581 250.004 241.699 250.106C241.817 250.208 241.955 250.284 242.104 250.329C242.253 250.373 242.41 250.386 242.565 250.365C242.719 250.344 242.867 250.29 242.999 250.208C248.725 247.106 254.913 250.679 256.937 254.412C259.315 253.707 271.512 249.124 274.523 243.003C277.533 236.882 263.836 216.034 259.379 206.595C259.236 206.595 245.123 175.736 237.039 172.575ZM251.833 253.077C259.069 256.726 259.618 268.986 247.015 270.147C240.927 270.711 234.029 261.092 240.247 254.896C241.748 253.424 243.672 252.457 245.749 252.131C247.826 251.805 249.953 252.136 251.833 253.077ZM254.794 262.001C254.401 265.285 251.641 267.421 248.377 268.023C242.323 269.117 237.702 261.365 241.02 256.931C245.35 251.138 255.701 254.479 254.8 262.001H254.794ZM264.374 245.707C253.16 222.724 241.379 199.61 229.5 176.879C229.094 176.122 230.408 175.423 230.824 176.156C243.757 199.018 254.914 221.225 266.389 244.941C266.986 246.186 264.976 246.949 264.374 245.707Z" fill="#2FAF40"/>
<path d="M60.5541 144.938C59.3274 143.744 55.0791 145.563 54.1048 143.066C53.459 141.423 57.7708 139.858 58.4842 138.599C58.5477 138.489 58.5775 138.363 58.5701 138.237C58.5627 138.111 58.5183 137.989 58.4425 137.888C58.3667 137.786 58.2628 137.709 58.1436 137.666C58.0245 137.623 57.8953 137.616 57.7722 137.646C56.6155 138.139 55.5438 138.811 54.5969 139.638C50.4035 142.562 52.8668 145.759 56.3932 146.209C57.3125 146.317 59.9521 146.581 60.5978 146.023C60.6712 145.951 60.7296 145.866 60.7694 145.772C60.8093 145.678 60.8298 145.577 60.8298 145.475C60.8298 145.373 60.8093 145.271 60.7694 145.177C60.7296 145.083 60.6712 144.998 60.5978 144.927L60.5541 144.938ZM71.8651 139.463C72.1063 140.054 70.1464 142.946 69.3356 142.595C67.277 141.74 57.4225 136.934 57.7835 135.281C58.2902 134.053 59.0343 132.936 59.9732 131.996C60.368 131.557 61.0688 132.095 60.8939 132.598C60.674 133.331 59.1202 135.128 59.185 135.357C59.3387 135.893 68.7984 140.963 69.4667 141.26C69.8277 140.696 70.1562 139.824 70.5623 139.286C70.6289 139.21 70.7098 139.149 70.8002 139.104C70.8906 139.06 70.9889 139.034 71.0893 139.028C71.1897 139.022 71.2904 139.036 71.3856 139.069C71.4807 139.101 71.5684 139.153 71.6438 139.219C71.8933 139.449 71.8369 139.635 71.8651 139.463ZM67.8199 143.58C66.7257 143.47 66.7257 145.628 66.4296 146.788C66.1885 147.61 65.9051 148.431 65.6203 149.253C65.3354 150.075 66.7694 151.311 68.0398 147.204C68.2626 146.46 69.2158 143.721 67.8199 143.58ZM61.6018 153.105C62.4814 152.718 63.2576 152.13 63.8676 151.388C64.7771 150.205 66.3535 151.189 64.6897 152.932C61.9232 155.805 59.835 153.902 61.5947 153.105H61.6018ZM59.2358 151.42C58.896 151.561 58.4701 151.843 58.5463 152.284C58.8523 154.158 64.12 150.96 62.4943 149.768C61.7625 149.223 61.2817 150.434 59.2104 151.42H59.2358ZM59.4007 148.42C58.6337 147.73 57.7257 149.285 56.3128 149.899C55.8419 150.095 54.8775 150.315 55.0312 150.993C55.4542 152.899 60.7797 149.635 59.4106 148.398L59.4007 148.42ZM54.6265 147.927C55.3385 147.325 55.9068 147.183 56.138 147.73C56.7937 149.219 53.5098 150.55 52.0095 149.175C50.8378 148.081 51.0676 145.409 52.3381 145.89C52.8851 146.099 52.6666 147.128 52.9176 147.665C52.9971 147.812 53.1092 147.939 53.2453 148.036C53.3814 148.133 53.538 148.198 53.7029 148.225C53.8678 148.252 54.0368 148.241 54.1969 148.193C54.357 148.145 54.5039 148.061 54.6265 147.947V147.927Z" fill="#191B1A"/>
<path d="M98.2348 104.567C93.1757 90.3258 94.7521 64.2718 97.1279 56.1474C97.3916 55.2168 86.3316 60.8554 83.9881 66.1443C81.6447 71.4332 76.9875 97.5154 75.3166 101.413C73.6458 105.31 60.764 129.269 60.3495 129.696C59.935 130.123 73.0085 139.791 73.9052 139.167C74.5073 138.744 78.1973 134.075 80.7494 130.707C83.8316 98.0893 82.4245 97.3843 84.8003 81.2919C84.7983 81.2252 84.8105 81.1588 84.8361 81.0972C84.8617 81.0356 84.9001 80.9801 84.9488 80.9344C84.9975 80.8887 85.0553 80.8539 85.1185 80.8323C85.1816 80.8107 85.2486 80.8027 85.3151 80.809C85.3815 80.8152 85.4459 80.8355 85.5039 80.8685C85.5619 80.9015 85.6123 80.9465 85.6516 81.0004C85.6909 81.0543 85.7183 81.116 85.732 81.1814C85.7457 81.2467 85.7453 81.3142 85.7309 81.3793C85.1669 87.6397 83.3748 124.931 83.2239 127.4C82.9941 131.145 80.3659 149.573 81.0342 150.569C81.5601 151.303 88.699 151.917 90.4727 150.569C92.2465 149.222 97.369 135.75 97.9965 134.81C96.2848 130.353 96.7007 112.308 98.2348 104.567ZM170.991 98.9931C173.76 103.373 185.335 127.988 185.477 129.379C185.62 130.769 173.574 137.393 172.611 136.852C171.648 136.31 154.986 110.792 152.771 108.021C149.336 103.724 131.346 91.8641 125.209 88.9708C124.617 88.6888 124.038 89.5729 124.596 89.9662C128.013 92.3759 131.526 94.3471 135.129 96.8978C137.407 125.944 144.744 149.303 143.538 150.376C142.619 151.197 111.642 152.183 108.852 151.351C106.062 150.519 99.7308 138.627 98.9962 132.538C98.2616 126.45 97.9894 110.518 99.9381 104.069C105.348 86.0902 119.648 56.2419 122.571 55.8146C125.494 55.3874 137.561 62.3852 140.55 64.6511C148.68 70.7254 172.312 99.6515 170.995 98.9931H170.991ZM102.461 116.129C102.484 116.509 102.646 116.868 102.916 117.138C103.185 117.408 103.544 117.571 103.925 117.595C104.305 117.619 104.682 117.503 104.983 117.27C105.285 117.036 105.491 116.701 105.563 116.326C106.019 112.078 101.739 112.625 102.461 116.129ZM105.976 128.239C106.734 125.842 103.665 123.334 103.096 126.739C102.614 129.579 105.269 130.468 105.976 128.239ZM127.174 68.6188C128.751 67.8518 125.871 60.5156 125.28 59.2564C124.973 58.6107 124.184 58.8518 124.448 59.5638C125.434 62.0813 126.021 64.7373 126.188 67.4359C124.848 67.94 123.552 68.553 122.312 69.2689C116.717 72.3356 118.042 71.9479 120.549 78.0292C121.02 79.1233 121.503 79.8622 120.648 80.821C114.364 87.9048 106.929 96.9063 103.239 105.479C102.957 106.125 103.71 106.4 104.037 105.808C109.928 95.1974 114.155 90.4781 121.558 82.0138C123.25 80.0652 122.728 79.8241 121.087 75.6195C119.536 71.6884 118.436 72.839 127.196 68.6231L127.174 68.6188ZM93.8539 99.8687C86.6855 79.6338 86.8039 82.3198 88.7525 78.2872C89.1685 77.4116 90.3613 75.9988 90.0117 75.4517C87.8205 71.9577 86.4091 71.5855 87.8205 68.7387C89.0924 66.1226 90.6495 63.6552 92.4636 61.3813C92.9022 60.8173 93.5592 61.2713 93.187 61.841C91.4077 64.4013 89.8299 67.0959 88.4677 69.9005C87.8431 71.9916 91.9603 74.7721 91.4287 75.9001C88.1448 82.6892 88.3267 80.1823 90.7829 87.6933C92.1083 91.7006 93.5099 95.6866 94.6929 99.7375C94.917 100.328 94.0922 100.533 93.8539 99.8687Z" fill="#191B1A"/>
<path d="M171.584 241.864C170.64 240.781 152.215 196.664 151.252 194.035C150.289 191.407 139.267 157.628 138.451 153.172C134.968 153.595 111.427 154.629 108.153 153.172C105.602 152.077 99.6997 142.661 98.7903 138.04C96.7959 142.854 94.4122 147.497 91.6627 151.923C90.6757 153.227 84.8186 153.588 82.5302 152.91C82.2679 153.764 71.2967 197.903 70.6072 202.6C69.9177 207.296 63.3795 250.328 62.9424 254.065C62.7887 255.159 79.8808 257.075 79.9907 255.616C80.1007 254.156 91.674 208.828 92.3635 207.03C93.053 205.232 105.327 179.07 110.77 169.913C108.263 164.166 108.437 162.37 102.623 160.125C101.813 159.808 102.229 159.029 103.046 159.238C107.49 160.334 108.98 161.855 110.612 165.326C115.846 176.417 121.187 194.189 127.09 203.026C128.952 205.829 155.29 249.496 156.963 251.05C158.635 252.604 172.502 242.916 171.584 241.864Z" fill="#191B1A"/>
<path d="M71.9976 166.869C71.3715 165.622 35.8635 143.876 33.8274 144.149C31.1484 144.455 6.64969 174.962 7.05577 176.822C7.46185 178.682 56.0222 206.902 57.686 206.594C59.3498 206.287 72.6151 168.108 71.9976 166.869ZM65.7668 157.322C64.7713 161.538 63.3148 160.168 63.4896 159.238C63.7716 157.639 64.2017 156.051 64.5852 154.485C64.8799 153.391 65.7555 153.193 66.1616 153.862C66.5676 154.53 65.9092 156.5 65.723 157.322H65.7668ZM50.9745 143.952C51.3425 144.657 50.6135 144.516 49.5729 144.883C47.0208 145.813 46.6599 149.657 45.2809 148.869C44.0753 148.164 47.864 143.777 48.8721 143.272C49.2414 143.086 49.6694 143.052 50.0632 143.18C50.4569 143.307 50.7844 143.585 50.9745 143.952ZM61.6496 184.75L56.4156 181.89C56.0567 182.765 55.5856 183.589 55.0141 184.343C53.7267 184.014 52.5172 183.433 51.4553 182.634C51.4553 182.547 51.9262 181.244 52.5508 179.755L33.6188 169.453C33.0444 170.504 32.3462 171.482 31.539 172.366C30.0588 171.847 28.6884 171.057 27.498 170.036C28.0246 169 28.621 168 29.283 167.045C27.027 165.776 24.771 164.493 22.5601 163.169C21.7381 162.687 22.5601 161.559 23.3258 161.954C25.6579 163.108 27.9725 164.298 30.2686 165.522C30.8127 164.597 31.447 163.728 32.1622 162.928C33.5637 163.423 34.8654 164.164 36.0059 165.118C35.6334 166.057 35.1636 166.955 34.6044 167.797L53.2164 177.926C53.5394 176.929 54.0119 175.988 54.6179 175.133C56.0191 175.618 57.3374 176.315 58.5264 177.201C58.1743 178.202 57.7501 179.176 57.2574 180.116L62.7324 183.077C63.7857 183.71 62.7451 185.341 61.6496 184.75Z" fill="#2FAF40"/>
</svg>
