<svg width="335" height="272" viewBox="0 0 335 272" fill="none" xmlns="http://www.w3.org/2000/svg">
<path d="M136 272C211.111 272 272 211.111 272 136C272 60.8893 211.111 0 136 0C60.8893 0 0 60.8893 0 136C0 211.111 60.8893 272 136 272Z" fill="url(#paint0_linear_26_6857)"/>
<g filter="url(#filter0_d_26_6857)">
<path d="M74.3479 61.6533H319.148C321.553 61.6533 323.859 62.6086 325.559 64.3089C327.259 66.0092 328.215 68.3154 328.215 70.72V116.053C328.215 118.458 327.259 120.764 325.559 122.464C323.859 124.165 321.553 125.12 319.148 125.12H74.3479C71.9433 125.12 69.6371 124.165 67.9368 122.464C66.2365 120.764 65.2812 118.458 65.2812 116.053V70.72C65.2812 68.3154 66.2365 66.0092 67.9368 64.3089C69.6371 62.6086 71.9433 61.6533 74.3479 61.6533V61.6533Z" fill="white"/>
</g>
<path d="M190.403 76.1602H143.256C140.252 76.1602 137.816 78.5957 137.816 81.6002C137.816 84.6046 140.252 87.0402 143.256 87.0402H190.403C193.408 87.0402 195.843 84.6046 195.843 81.6002C195.843 78.5957 193.408 76.1602 190.403 76.1602Z" fill="#D3F6A6"/>
<path d="M223.043 99.7334H143.256C140.252 99.7334 137.816 102.169 137.816 105.173C137.816 108.178 140.252 110.613 143.256 110.613H223.043C226.048 110.613 228.483 108.178 228.483 105.173C228.483 102.169 226.048 99.7334 223.043 99.7334Z" fill="#D3F6A6"/>
<path d="M123.309 93.3861C123.309 78.8647 111.537 67.0928 97.016 67.0928C82.4946 67.0928 70.7227 78.8647 70.7227 93.3861C70.7227 107.908 82.4946 119.679 97.016 119.679C111.537 119.679 123.309 107.908 123.309 93.3861Z" fill="#2FAF40"/>
<path d="M95.3829 101.897C97.6338 101.897 99.82 101.144 101.594 99.7574L107.17 105.333L108.963 103.54L103.385 97.9622C104.786 96.1503 105.533 93.9172 105.503 91.6268C105.472 89.3364 104.667 87.1238 103.219 85.3496C101.77 83.5753 99.763 82.344 97.5249 81.8564C95.2869 81.3688 92.9496 81.6535 90.8941 82.6643C88.8386 83.675 87.186 85.3522 86.2057 87.4224C85.2254 89.4926 84.9752 91.8338 85.4958 94.0644C86.0164 96.2951 87.2771 98.2836 89.0726 99.706C90.868 101.128 93.0923 101.901 95.3829 101.897ZM95.3829 84.1373C96.8892 84.1373 98.3616 84.584 99.6141 85.4208C100.867 86.2577 101.843 87.4471 102.419 88.8388C102.996 90.2304 103.146 91.7618 102.853 93.2391C102.559 94.7165 101.833 96.0735 100.768 97.1386C99.7031 98.2037 98.346 98.9291 96.8687 99.223C95.3913 99.5168 93.86 99.366 92.4683 98.7896C91.0767 98.2131 89.8872 97.237 89.0504 95.9845C88.2135 94.7321 87.7669 93.2596 87.7669 91.7533C87.7669 89.7334 88.5693 87.7963 89.9975 86.368C91.4258 84.9397 93.363 84.1373 95.3829 84.1373Z" fill="white"/>
<g filter="url(#filter1_d_26_6857)">
<path d="M291.953 143.254H47.1526C42.1452 143.254 38.0859 147.313 38.0859 152.321V197.654C38.0859 202.661 42.1452 206.721 47.1526 206.721H291.953C296.96 206.721 301.019 202.661 301.019 197.654V152.321C301.019 147.313 296.96 143.254 291.953 143.254Z" fill="white"/>
</g>
<path d="M163.204 157.76H116.057C113.053 157.76 110.617 160.195 110.617 163.2C110.617 166.204 113.053 168.64 116.057 168.64H163.204C166.208 168.64 168.644 166.204 168.644 163.2C168.644 160.195 166.208 157.76 163.204 157.76Z" fill="#D3F6A6"/>
<path d="M195.844 181.333H116.057C113.053 181.333 110.617 183.769 110.617 186.773C110.617 189.777 113.053 192.213 116.057 192.213H195.844C198.848 192.213 201.284 189.777 201.284 186.773C201.284 183.769 198.848 181.333 195.844 181.333Z" fill="#D3F6A6"/>
<path d="M96.1101 174.987C96.1101 160.465 84.3382 148.693 69.8168 148.693C55.2954 148.693 43.5234 160.465 43.5234 174.987C43.5234 189.508 55.2954 201.28 69.8168 201.28C84.3382 201.28 96.1101 189.508 96.1101 174.987Z" fill="#2FAF40"/>
<path d="M68.1836 183.498C70.4346 183.497 72.6208 182.744 74.3943 181.358L79.9703 186.934L81.7637 185.141L76.1859 179.563C77.5873 177.751 78.3337 175.518 78.3034 173.227C78.2732 170.937 77.4681 168.724 76.0194 166.95C74.5707 165.176 72.5638 163.945 70.3257 163.457C68.0876 162.969 65.7504 163.254 63.6949 164.265C61.6394 165.276 59.9868 166.953 59.0065 169.023C58.0262 171.093 57.7759 173.434 58.2965 175.665C58.8172 177.896 60.0779 179.884 61.8734 181.307C63.6688 182.729 65.8931 183.501 68.1836 183.498ZM68.1836 165.738C69.6899 165.738 71.1624 166.185 72.4149 167.021C73.6673 167.858 74.6435 169.048 75.2199 170.439C75.7963 171.831 75.9472 173.362 75.6533 174.84C75.3594 176.317 74.6341 177.674 73.569 178.739C72.5038 179.804 71.1468 180.53 69.6694 180.824C68.1921 181.117 66.6608 180.967 65.2691 180.39C63.8775 179.814 62.688 178.838 61.8512 177.585C61.0143 176.333 60.5676 174.86 60.5676 173.354C60.5676 171.334 61.37 169.397 62.7983 167.969C64.2266 166.54 66.1637 165.738 68.1836 165.738Z" fill="white"/>
<defs>
<filter id="filter0_d_26_6857" x="59.2812" y="58.6533" width="274.934" height="75.4668" filterUnits="userSpaceOnUse" color-interpolation-filters="sRGB">
<feFlood flood-opacity="0" result="BackgroundImageFix"/>
<feColorMatrix in="SourceAlpha" type="matrix" values="0 0 0 0 0 0 0 0 0 0 0 0 0 0 0 0 0 0 127 0" result="hardAlpha"/>
<feOffset dy="3"/>
<feGaussianBlur stdDeviation="3"/>
<feColorMatrix type="matrix" values="0 0 0 0 0 0 0 0 0 0 0 0 0 0 0 0 0 0 0.161 0"/>
<feBlend mode="normal" in2="BackgroundImageFix" result="effect1_dropShadow_26_6857"/>
<feBlend mode="normal" in="SourceGraphic" in2="effect1_dropShadow_26_6857" result="shape"/>
</filter>
<filter id="filter1_d_26_6857" x="32.0859" y="140.254" width="274.934" height="75.4668" filterUnits="userSpaceOnUse" color-interpolation-filters="sRGB">
<feFlood flood-opacity="0" result="BackgroundImageFix"/>
<feColorMatrix in="SourceAlpha" type="matrix" values="0 0 0 0 0 0 0 0 0 0 0 0 0 0 0 0 0 0 127 0" result="hardAlpha"/>
<feOffset dy="3"/>
<feGaussianBlur stdDeviation="3"/>
<feColorMatrix type="matrix" values="0 0 0 0 0 0 0 0 0 0 0 0 0 0 0 0 0 0 0.161 0"/>
<feBlend mode="normal" in2="BackgroundImageFix" result="effect1_dropShadow_26_6857"/>
<feBlend mode="normal" in="SourceGraphic" in2="effect1_dropShadow_26_6857" result="shape"/>
</filter>
<linearGradient id="paint0_linear_26_6857" x1="136" y1="0" x2="136" y2="272" gradientUnits="userSpaceOnUse">
<stop stop-color="#D3F6A6"/>
<stop offset="1" stop-color="#D3F6A6"/>
</linearGradient>
</defs>
</svg>
