<svg width="340" height="244" viewBox="0 0 340 244" fill="none" xmlns="http://www.w3.org/2000/svg">
<path d="M277.884 0H68.7411C59.1155 0 51.3125 7.80304 51.3125 17.4286V226.571C51.3125 236.197 59.1155 244 68.7411 244H277.884C287.509 244 295.312 236.197 295.312 226.571V17.4286C295.312 7.80304 287.509 0 277.884 0Z" fill="url(#paint0_linear_26_6900)"/>
<g filter="url(#filter0_d_26_6900)">
<path d="M89.6596 94.1143H324.945C327.256 94.1143 329.473 95.0324 331.107 96.6666C332.741 98.3009 333.66 100.517 333.66 102.829V146.4C333.66 148.711 332.741 150.928 331.107 152.562C329.473 154.196 327.256 155.114 324.945 155.114H89.6596C87.3484 155.114 85.1319 154.196 83.4977 152.562C81.8634 150.928 80.9453 148.711 80.9453 146.4V102.829C80.9453 100.517 81.8634 98.3009 83.4977 96.6666C85.1319 95.0324 87.3484 94.1143 89.6596 94.1143V94.1143Z" fill="white"/>
</g>
<path d="M218.629 108.057H173.315C170.427 108.057 168.086 110.398 168.086 113.285C168.086 116.173 170.427 118.514 173.315 118.514H218.629C221.516 118.514 223.857 116.173 223.857 113.285C223.857 110.398 221.516 108.057 218.629 108.057Z" fill="#D3F6A6"/>
<path d="M250 130.714H173.315C170.427 130.714 168.086 133.055 168.086 135.942C168.086 138.83 170.427 141.171 173.315 141.171H250C252.888 141.171 255.229 138.83 255.229 135.942C255.229 133.055 252.888 130.714 250 130.714Z" fill="#D3F6A6"/>
<path d="M134.096 141.17C143.24 141.17 150.653 133.757 150.653 124.613C150.653 115.469 143.24 108.056 134.096 108.056C124.952 108.056 117.539 115.469 117.539 124.613C117.539 133.757 124.952 141.17 134.096 141.17Z" fill="#2FAF40"/>
<path d="M129.957 125.256H130.741L128.921 120.433H128.116L126.296 125.256H127.087L127.549 124.052H129.495L129.957 125.256ZM128.522 121.364L129.243 123.387H127.801L128.522 121.364ZM133.341 121.119C133.866 121.119 134.083 121.56 134.083 121.966C134.083 122.379 133.845 122.806 133.313 122.806H132.165V121.119H133.341ZM131.416 125.256H132.165V123.485H133.355C134.391 123.485 134.825 122.729 134.825 121.966C134.825 121.203 134.391 120.433 133.355 120.433H131.416V125.256Z" fill="white"/>
<g filter="url(#filter1_d_26_6900)">
<path d="M14.7143 169.057H250C252.311 169.057 254.528 169.975 256.162 171.609C257.796 173.243 258.714 175.46 258.714 177.771V221.342C258.714 223.654 257.796 225.87 256.162 227.504C254.528 229.139 252.311 230.057 250 230.057H14.7143C12.4031 230.057 10.1866 229.139 8.55236 227.504C6.91811 225.87 6 223.654 6 221.342V177.771C6 175.46 6.91811 173.243 8.55236 171.609C10.1866 169.975 12.4031 169.057 14.7143 169.057V169.057Z" fill="white"/>
</g>
<path d="M143.683 183H98.3692C95.4815 183 93.1406 185.341 93.1406 188.229C93.1406 191.116 95.4815 193.457 98.3692 193.457H143.683C146.571 193.457 148.912 191.116 148.912 188.229C148.912 185.341 146.571 183 143.683 183Z" fill="#D3F6A6"/>
<path d="M175.055 205.657H98.3692C95.4815 205.657 93.1406 207.998 93.1406 210.886C93.1406 213.773 95.4815 216.114 98.3692 216.114H175.055C177.943 216.114 180.283 213.773 180.283 210.886C180.283 207.998 177.943 205.657 175.055 205.657Z" fill="#D3F6A6"/>
<path d="M36.5025 216.114C45.6467 216.114 53.0596 208.701 53.0596 199.557C53.0596 190.413 45.6467 183 36.5025 183C27.3582 183 19.9453 190.413 19.9453 199.557C19.9453 208.701 27.3582 216.114 36.5025 216.114Z" fill="#2FAF40"/>
<path d="M30.3253 200.088C31.4173 200.088 31.8303 199.367 31.8303 198.513V193.634H31.1093V198.513C31.1093 198.989 30.8923 199.395 30.3253 199.395C30.2693 199.395 29.9543 199.381 29.8353 199.339L29.7653 200.011C29.9473 200.053 30.1923 200.088 30.3253 200.088ZM34.5455 198.527C35.5185 198.527 36.1765 197.89 36.1765 197.085C36.1765 196.378 35.6655 195.937 34.8535 195.734L34.2445 195.58C33.6355 195.426 33.5865 195.104 33.5865 194.95C33.5865 194.509 33.9925 194.236 34.4475 194.236C34.9445 194.236 35.3015 194.544 35.3015 194.999H36.0155C36.0155 194.124 35.3365 193.578 34.4685 193.578C33.6145 193.578 32.8655 194.117 32.8655 194.964C32.8655 195.363 33.0335 195.972 34.0625 196.231L34.6785 196.385C35.0705 196.49 35.4555 196.693 35.4555 197.12C35.4555 197.519 35.1195 197.869 34.5455 197.869C33.9435 197.869 33.5585 197.47 33.5445 197.057H32.8305C32.8305 197.834 33.5165 198.527 34.5455 198.527Z" fill="white"/>
<g filter="url(#filter2_d_26_6900)">
<path d="M250 19.1709H14.7143C9.90152 19.1709 6 23.0724 6 27.8852V71.4566C6 76.2694 9.90152 80.1709 14.7143 80.1709H250C254.813 80.1709 258.714 76.2694 258.714 71.4566V27.8852C258.714 23.0724 254.813 19.1709 250 19.1709Z" fill="white"/>
</g>
<path d="M140.199 33.1143H94.8848C91.9972 33.1143 89.6562 35.4552 89.6562 38.3428C89.6562 41.2305 91.9972 43.5714 94.8848 43.5714H140.199C143.087 43.5714 145.428 41.2305 145.428 38.3428C145.428 35.4552 143.087 33.1143 140.199 33.1143Z" fill="#D3F6A6"/>
<path d="M171.571 55.7715H94.8848C91.9972 55.7715 89.6562 58.1124 89.6562 61.0001C89.6562 63.8877 91.9972 66.2286 94.8848 66.2286H171.571C174.458 66.2286 176.799 63.8877 176.799 61.0001C176.799 58.1124 174.458 55.7715 171.571 55.7715Z" fill="#D3F6A6"/>
<path d="M59.1548 66.2285C68.2991 66.2285 75.7119 58.8157 75.7119 49.6714C75.7119 40.5271 68.2991 33.1143 59.1548 33.1143C50.0105 33.1143 42.5977 40.5271 42.5977 49.6714C42.5977 58.8157 50.0105 66.2285 59.1548 66.2285Z" fill="#2FAF40"/>
<path d="M54.1092 50.1713C54.1092 50.9553 54.8092 51.6413 55.8102 51.6413C56.7272 51.6413 57.3782 51.1023 57.4552 50.3463C57.5322 49.6463 57.1332 49.1073 56.1532 48.8483L55.5372 48.6873C54.9632 48.5403 54.8932 48.2463 54.8932 48.0573C54.8932 47.6653 55.2782 47.3923 55.7262 47.3923C56.2302 47.3923 56.5662 47.6723 56.5662 48.1203H57.3082C57.3082 47.2383 56.6362 46.6923 55.7402 46.6923C54.8932 46.6923 54.1512 47.2453 54.1512 48.0713C54.1512 48.4983 54.3122 49.0863 55.3482 49.3663L55.9572 49.5203C56.4052 49.6253 56.7482 49.8563 56.7202 50.3043C56.6712 50.6613 56.3772 50.9623 55.8102 50.9623C55.2292 50.9623 54.8722 50.5633 54.8512 50.1713H54.1092ZM59.1507 47.4413H60.2847C61.2297 47.4413 61.7127 48.2183 61.7127 49.1703C61.7127 50.1293 61.2297 50.8853 60.2847 50.8853H59.1507V47.4413ZM60.2847 51.5713C61.6567 51.5713 62.4547 50.5423 62.4547 49.1703C62.4547 47.7983 61.6567 46.7483 60.2847 46.7483H58.4087V51.5713H60.2847Z" fill="white"/>
<defs>
<filter id="filter0_d_26_6900" x="74.9453" y="91.1143" width="264.715" height="73" filterUnits="userSpaceOnUse" color-interpolation-filters="sRGB">
<feFlood flood-opacity="0" result="BackgroundImageFix"/>
<feColorMatrix in="SourceAlpha" type="matrix" values="0 0 0 0 0 0 0 0 0 0 0 0 0 0 0 0 0 0 127 0" result="hardAlpha"/>
<feOffset dy="3"/>
<feGaussianBlur stdDeviation="3"/>
<feColorMatrix type="matrix" values="0 0 0 0 0 0 0 0 0 0 0 0 0 0 0 0 0 0 0.161 0"/>
<feBlend mode="normal" in2="BackgroundImageFix" result="effect1_dropShadow_26_6900"/>
<feBlend mode="normal" in="SourceGraphic" in2="effect1_dropShadow_26_6900" result="shape"/>
</filter>
<filter id="filter1_d_26_6900" x="0" y="166.057" width="264.715" height="73" filterUnits="userSpaceOnUse" color-interpolation-filters="sRGB">
<feFlood flood-opacity="0" result="BackgroundImageFix"/>
<feColorMatrix in="SourceAlpha" type="matrix" values="0 0 0 0 0 0 0 0 0 0 0 0 0 0 0 0 0 0 127 0" result="hardAlpha"/>
<feOffset dy="3"/>
<feGaussianBlur stdDeviation="3"/>
<feColorMatrix type="matrix" values="0 0 0 0 0 0 0 0 0 0 0 0 0 0 0 0 0 0 0.161 0"/>
<feBlend mode="normal" in2="BackgroundImageFix" result="effect1_dropShadow_26_6900"/>
<feBlend mode="normal" in="SourceGraphic" in2="effect1_dropShadow_26_6900" result="shape"/>
</filter>
<filter id="filter2_d_26_6900" x="0" y="16.1709" width="264.715" height="73" filterUnits="userSpaceOnUse" color-interpolation-filters="sRGB">
<feFlood flood-opacity="0" result="BackgroundImageFix"/>
<feColorMatrix in="SourceAlpha" type="matrix" values="0 0 0 0 0 0 0 0 0 0 0 0 0 0 0 0 0 0 127 0" result="hardAlpha"/>
<feOffset dy="3"/>
<feGaussianBlur stdDeviation="3"/>
<feColorMatrix type="matrix" values="0 0 0 0 0 0 0 0 0 0 0 0 0 0 0 0 0 0 0.161 0"/>
<feBlend mode="normal" in2="BackgroundImageFix" result="effect1_dropShadow_26_6900"/>
<feBlend mode="normal" in="SourceGraphic" in2="effect1_dropShadow_26_6900" result="shape"/>
</filter>
<linearGradient id="paint0_linear_26_6900" x1="173.312" y1="0" x2="173.312" y2="244" gradientUnits="userSpaceOnUse">
<stop stop-color="#D3F6A6"/>
<stop offset="1" stop-color="#D3F6A6"/>
</linearGradient>
</defs>
</svg>
