<svg width="226" height="65" viewBox="0 0 226 65" fill="none" xmlns="http://www.w3.org/2000/svg">
<rect x="193.676" y="64.5322" width="13.6113" height="63.122" rx="6.80566" transform="rotate(179.493 193.676 64.5322)" fill="#191B1A"/>
<path d="M182.685 22.4356C182.582 10.7645 191.959 1.21943 203.63 1.1162C215.302 1.01297 224.847 10.3906 224.95 22.0618C225.053 33.733 215.675 43.278 204.004 43.3812C192.333 43.4845 182.788 34.1068 182.685 22.4356ZM212.45 22.1724C212.408 17.4046 208.509 13.5737 203.741 13.6159C198.973 13.6581 195.142 17.5573 195.184 22.3251C195.227 27.0928 199.126 30.9237 203.894 30.8815C208.661 30.8394 212.492 26.9401 212.45 22.1724Z" fill="#191B1A"/>
<path fill-rule="evenodd" clip-rule="evenodd" d="M92.2891 53.112C92.2891 52.754 92.5206 52.4639 92.8063 52.4639H100.682C100.968 52.4639 101.199 52.754 101.199 53.112C101.199 53.4699 100.968 53.7601 100.682 53.7601H92.8063C92.5206 53.7601 92.2891 53.4699 92.2891 53.112Z" fill="#2FAF40"/>
<path fill-rule="evenodd" clip-rule="evenodd" d="M128.5 53.112C128.5 52.754 128.732 52.4639 129.017 52.4639H136.893C137.178 52.4639 137.41 52.754 137.41 53.112C137.41 53.4699 137.178 53.7601 136.893 53.7601H129.017C128.732 53.7601 128.5 53.4699 128.5 53.112Z" fill="#2FAF40"/>
<path fill-rule="evenodd" clip-rule="evenodd" d="M86 58.3659C86 58.0079 86.2316 57.7178 86.5172 57.7178L100.682 57.7178C100.968 57.7178 101.199 58.0079 101.199 58.3659C101.199 58.7238 100.968 59.014 100.682 59.014L86.5172 59.014C86.2316 59.014 86 58.7238 86 58.3659Z" fill="#2FAF40"/>
<path fill-rule="evenodd" clip-rule="evenodd" d="M122.207 58.3659C122.207 58.0079 122.439 57.7178 122.724 57.7178L136.889 57.7178C137.175 57.7178 137.407 58.0079 137.407 58.3659C137.407 58.7238 137.175 59.014 136.889 59.014L122.724 59.014C122.439 59.014 122.207 58.7238 122.207 58.3659Z" fill="#2FAF40"/>
<path fill-rule="evenodd" clip-rule="evenodd" d="M92.2891 63.6198C92.2891 63.2618 92.5206 62.9717 92.8063 62.9717L106.971 62.9717C107.257 62.9717 107.489 63.2618 107.489 63.6198C107.489 63.9777 107.257 64.2679 106.971 64.2679L92.8063 64.2679C92.5206 64.2679 92.2891 63.9777 92.2891 63.6198Z" fill="#2FAF40"/>
<path fill-rule="evenodd" clip-rule="evenodd" d="M128.5 63.6198C128.5 63.2618 128.732 62.9717 129.017 62.9717L143.182 62.9717C143.468 62.9717 143.699 63.2618 143.699 63.6198C143.699 63.9777 143.468 64.2679 143.182 64.2679L129.017 64.2679C128.732 64.2679 128.5 63.9777 128.5 63.6198Z" fill="#2FAF40"/>
<path d="M175.217 29.5801C175.217 42.3469 164.867 52.6964 152.101 52.6964C139.334 52.6964 128.984 42.3469 128.984 29.5801C128.984 16.8134 139.334 6.46387 152.101 6.46387C164.867 6.46387 175.217 16.8134 175.217 29.5801ZM142.657 29.5801C142.657 34.7954 146.885 39.0233 152.101 39.0233C157.316 39.0233 161.544 34.7954 161.544 29.5801C161.544 24.3648 157.316 20.1369 152.101 20.1369C146.885 20.1369 142.657 24.3648 142.657 29.5801Z" fill="#2FAF40"/>
<path d="M138.233 30.6084C138.233 43.3752 127.883 53.7247 115.116 53.7247C102.349 53.7247 92 43.3752 92 30.6084C92 17.8417 102.349 7.49219 115.116 7.49219C127.883 7.49219 138.233 17.8417 138.233 30.6084ZM105.673 30.6084C105.673 35.8238 109.901 40.0516 115.116 40.0516C120.332 40.0516 124.559 35.8238 124.559 30.6084C124.559 25.3931 120.332 21.1653 115.116 21.1653C109.901 21.1653 105.673 25.3931 105.673 30.6084Z" fill="#2FAF40"/>
<path d="M100.673 17.1399C100.497 16.6936 100.119 16.5445 99.8344 16.8284C97.6797 18.9743 95.9886 22.0292 94.971 25.613C94.8321 26.102 94.9995 26.6601 95.326 26.8442C95.6485 27.026 96.0047 26.7743 96.1431 26.2923C97.0562 23.1129 98.5562 20.3978 100.463 18.4731C100.752 18.1817 100.851 17.5938 100.673 17.1399Z" fill="white"/>
<rect x="73.9531" y="64.4072" width="13.6113" height="60.7602" rx="6.80566" transform="rotate(179.493 73.9531 64.4072)" fill="#191B1A"/>
<rect width="12.3521" height="52.5588" rx="6.17604" transform="matrix(0.000564026 -1 1 -0.000530217 40.9922 12.8164)" fill="#191B1A"/>
<path d="M33.211 12.8397C36.3651 11.1017 37.2488 6.90677 34.2514 4.89608C32.9421 4.01776 31.5117 3.27145 29.9864 2.67681C26.219 1.20803 22.0377 0.728888 17.9597 1.2986C13.8816 1.86831 10.0854 3.4619 7.04049 5.88237C3.99557 8.30284 1.83537 11.4441 0.826955 14.9177C-0.181459 18.3913 0.00612497 22.0451 1.36651 25.4273C2.7269 28.8094 5.20045 31.7718 8.48137 33.948C11.7623 36.1242 16.3207 37.9989 20.441 38.2521C22.3433 38.369 24.1136 38.1379 25.8229 37.6827C29.0568 36.8215 30.0608 32.8944 28.2391 30.0799C26.7025 27.706 23.5305 27.0327 20.7106 26.8594C19.0274 26.756 17.4161 26.2271 16.0758 25.3381C14.7355 24.449 13.7251 23.2389 13.1694 21.8573C12.6136 20.4756 12.537 18.983 12.9489 17.564C13.3609 16.145 14.2433 14.8618 15.4872 13.873C16.7311 12.8842 18.2819 12.2332 19.9478 12.0005C21.6137 11.7678 23.3218 11.9635 24.8608 12.5635C27.3894 13.5493 30.3842 14.3974 32.7566 13.0901L33.211 12.8397Z" fill="#191B1A"/>
<path d="M14.8337 33.3931C14.4625 30.6997 16.0533 27.9923 18.7077 27.414C20.5945 27.0029 22.4085 26.9245 24.8187 27.4912C28.9912 28.4724 34.7496 31.3397 37.5249 34.2142C40.3002 37.0886 41.9921 40.632 42.3726 44.3664C42.753 48.1008 41.8035 51.8466 39.6523 55.0984C37.501 58.3502 34.2514 60.9517 30.3419 62.552C26.4324 64.1522 22.0509 64.6742 17.7886 64.0475C13.5263 63.4209 9.58809 61.6757 6.50527 59.0474C5.19174 57.9276 4.06041 56.6704 3.133 55.3111C1.12718 52.3713 3.48686 48.8725 6.99441 48.3034L8.1698 48.1127C10.7828 47.6888 13.251 49.5973 15.2688 51.3176C16.5281 52.3912 18.1369 53.1042 19.8781 53.3601C21.6193 53.6161 23.4091 53.4029 25.0062 52.7492C26.6033 52.0955 27.9308 51.0328 28.8096 49.7044C29.6884 48.376 30.0762 46.8458 29.9208 45.3203C29.7654 43.7947 29.0743 42.3472 27.9405 41.173C26.8068 39.9987 25.285 39.1543 23.5805 38.7535C22.5893 38.5204 20.701 38.175 18.8634 37.8022C16.702 37.3637 15.1347 35.5775 14.8337 33.3931Z" fill="#191B1A"/>
</svg>
