<svg width="334" height="337" viewBox="0 0 334 337" fill="none" xmlns="http://www.w3.org/2000/svg">
<path d="M167 334C259.232 334 334 259.232 334 167C334 74.7684 259.232 0 167 0C74.7684 0 0 74.7684 0 167C0 259.232 74.7684 334 167 334Z" fill="url(#paint0_linear_26_6880)"/>
<g filter="url(#filter0_d_26_6880)">
<mask id="mask0_26_6880" style="mask-type:alpha" maskUnits="userSpaceOnUse" x="0" y="0" width="334" height="334">
<path d="M167 334C259.232 334 334 259.232 334 167C334 74.7684 259.232 0 167 0C74.7684 0 0 74.7684 0 167C0 259.232 74.7684 334 167 334Z" fill="url(#paint1_linear_26_6880)"/>
</mask>
<g mask="url(#mask0_26_6880)">
<path d="M262.748 95.7471H71.2544C65.1057 95.7471 60.1211 100.732 60.1211 106.88V340.68C60.1211 346.829 65.1057 351.814 71.2544 351.814H262.748C268.897 351.814 273.881 346.829 273.881 340.68V106.88C273.881 100.732 268.897 95.7471 262.748 95.7471Z" fill="white"/>
</g>
</g>
<path d="M146.96 118.014H89.0667C85.3775 118.014 82.3867 121.004 82.3867 124.694C82.3867 128.383 85.3775 131.374 89.0667 131.374H146.96C150.649 131.374 153.64 128.383 153.64 124.694C153.64 121.004 150.649 118.014 146.96 118.014Z" fill="#D3F6A6"/>
<path d="M146.96 211.533H89.0667C85.3775 211.533 82.3867 214.524 82.3867 218.213C82.3867 221.902 85.3775 224.893 89.0667 224.893H146.96C150.649 224.893 153.64 221.902 153.64 218.213C153.64 214.524 150.649 211.533 146.96 211.533Z" fill="#D3F6A6"/>
<path d="M240.48 151.413H93.5199C88.6009 151.413 84.6133 155.401 84.6133 160.32V182.586C84.6133 187.505 88.6009 191.493 93.5199 191.493H240.48C245.399 191.493 249.387 187.505 249.387 182.586V160.32C249.387 155.401 245.399 151.413 240.48 151.413Z" stroke="#2FAF40" stroke-width="2"/>
<path d="M240.48 242.707H93.5201C87.3713 242.707 82.3867 247.692 82.3867 253.84V271.654C82.3867 277.802 87.3713 282.787 93.5201 282.787H240.48C246.629 282.787 251.613 277.802 251.613 271.654V253.84C251.613 247.692 246.629 242.707 240.48 242.707Z" fill="#D3F6A6"/>
<path d="M118.016 71.2528C122.935 71.2528 126.923 67.2651 126.923 62.3461C126.923 57.4271 122.935 53.4395 118.016 53.4395C113.097 53.4395 109.109 57.4271 109.109 62.3461C109.109 67.2651 113.097 71.2528 118.016 71.2528Z" fill="white"/>
<path d="M167.004 71.2528C171.923 71.2528 175.911 67.2651 175.911 62.3461C175.911 57.4271 171.923 53.4395 167.004 53.4395C162.085 53.4395 158.098 57.4271 158.098 62.3461C158.098 67.2651 162.085 71.2528 167.004 71.2528Z" fill="#2FAF40"/>
<path d="M215.989 71.2528C220.908 71.2528 224.895 67.2651 224.895 62.3461C224.895 57.4271 220.908 53.4395 215.989 53.4395C211.07 53.4395 207.082 57.4271 207.082 62.3461C207.082 67.2651 211.07 71.2528 215.989 71.2528Z" fill="white"/>
<path d="M191.497 195.947C197.645 195.947 202.63 190.963 202.63 184.814C202.63 178.665 197.645 173.681 191.497 173.681C185.348 173.681 180.363 178.665 180.363 184.814C180.363 190.963 185.348 195.947 191.497 195.947Z" fill="#D3F6A6"/>
<path d="M200.192 232.398C198.41 232.398 196.747 232.398 195.233 232.303C193.368 232.176 191.574 231.538 190.048 230.458C188.522 229.378 187.324 227.899 186.584 226.182L177.19 207.616C176.501 206.813 176.157 205.771 176.233 204.717C176.309 203.662 176.799 202.68 177.595 201.984C178.248 201.46 179.063 201.177 179.9 201.185C180.517 201.203 181.122 201.354 181.674 201.629C182.227 201.903 182.713 202.294 183.1 202.775L187.366 208.598L187.431 208.673V186.551C187.431 185.454 187.867 184.401 188.643 183.625C189.419 182.849 190.471 182.413 191.569 182.413C192.666 182.413 193.719 182.849 194.495 183.625C195.271 184.401 195.707 185.454 195.707 186.551V201.025C195.659 200.492 195.722 199.955 195.893 199.449C196.064 198.942 196.339 198.476 196.699 198.082C197.06 197.687 197.499 197.372 197.988 197.156C198.478 196.94 199.007 196.829 199.541 196.829C200.076 196.829 200.605 196.94 201.094 197.156C201.584 197.372 202.023 197.687 202.383 198.082C202.744 198.476 203.019 198.942 203.19 199.449C203.36 199.955 203.424 200.492 203.376 201.025V204.042C203.328 203.509 203.391 202.972 203.562 202.466C203.733 201.959 204.007 201.493 204.368 201.099C204.729 200.704 205.168 200.389 205.657 200.173C206.146 199.957 206.675 199.846 207.21 199.846C207.745 199.846 208.274 199.957 208.763 200.173C209.252 200.389 209.691 200.704 210.052 201.099C210.413 201.493 210.687 201.959 210.858 202.466C211.029 202.972 211.092 203.509 211.044 204.042V206.366C210.996 205.834 211.06 205.297 211.231 204.79C211.401 204.284 211.676 203.818 212.037 203.423C212.397 203.029 212.836 202.713 213.326 202.498C213.815 202.282 214.344 202.17 214.879 202.17C215.413 202.17 215.942 202.282 216.432 202.498C216.921 202.713 217.36 203.029 217.721 203.423C218.081 203.818 218.356 204.284 218.527 204.79C218.698 205.297 218.761 205.834 218.713 206.366V220.477C218.637 224.817 216.676 232.133 209.775 232.133C209.274 232.156 205.03 232.401 200.201 232.401L200.192 232.398Z" fill="#2FAF40" stroke="white"/>
<defs>
<filter id="filter0_d_26_6880" x="54.1211" y="86.7471" width="225.762" height="250.253" filterUnits="userSpaceOnUse" color-interpolation-filters="sRGB">
<feFlood flood-opacity="0" result="BackgroundImageFix"/>
<feColorMatrix in="SourceAlpha" type="matrix" values="0 0 0 0 0 0 0 0 0 0 0 0 0 0 0 0 0 0 127 0" result="hardAlpha"/>
<feOffset dy="-3"/>
<feGaussianBlur stdDeviation="3"/>
<feColorMatrix type="matrix" values="0 0 0 0 0.788235 0 0 0 0 0.803922 0 0 0 0 0.85098 0 0 0 0.349 0"/>
<feBlend mode="normal" in2="BackgroundImageFix" result="effect1_dropShadow_26_6880"/>
<feBlend mode="normal" in="SourceGraphic" in2="effect1_dropShadow_26_6880" result="shape"/>
</filter>
<linearGradient id="paint0_linear_26_6880" x1="167" y1="0" x2="167" y2="334" gradientUnits="userSpaceOnUse">
<stop stop-color="#D3F6A6"/>
<stop offset="1" stop-color="#D3F6A6"/>
</linearGradient>
<linearGradient id="paint1_linear_26_6880" x1="167" y1="0" x2="167" y2="334" gradientUnits="userSpaceOnUse">
<stop stop-color="#E3ECFA"/>
<stop offset="1" stop-color="#DAE7FF"/>
</linearGradient>
</defs>
</svg>
